<?xml version="1.0" encoding="utf-8"?>
<!-- Generator: Adobe Illustrator 16.0.0, SVG Export Plug-In . SVG Version: 6.00 Build 0)  -->
<!DOCTYPE svg PUBLIC "-//W3C//DTD SVG 1.1//EN" "http://www.w3.org/Graphics/SVG/1.1/DTD/svg11.dtd">
<svg version="1.1" id="Calque_1" xmlns="http://www.w3.org/2000/svg" xmlns:xlink="http://www.w3.org/1999/xlink" x="0px" y="0px"
	 width="50px" height="50px" viewBox="0 0 50 50" enable-background="new 0 0 50 50" xml:space="preserve">
<path fill-rule="evenodd" clip-rule="evenodd" fill="#283A34" d="M21.369,30.301c0.971-1.119,1.595-2.299,2.11-3.523
	c0.676-1.608,1.271-3.252,1.865-4.894c0.188-0.517,0.438-0.921,1.004-0.991c0.57-0.07,0.931,0.258,1.205,0.731
	c2.188,3.76,3.611,7.815,4.568,12.038c0.344,1.514,0.633,3.064,0.702,4.609c0.145,3.227-1.274,5.797-3.742,7.795
	c-4.973,4.027-12.743,3.621-17.199-0.891c-2.198-2.227-3.128-4.924-2.693-8.02c0.771-5.484,2.429-10.686,5.192-15.505
	c0.429-0.748,0.97-1.432,1.465-2.142c0.309-0.443,0.709-0.731,1.276-0.591c0.583,0.144,0.796,0.58,0.89,1.146
	c0.478,2.876,1.201,5.688,2.392,8.36C20.676,29.037,21.017,29.621,21.369,30.301z M26.724,24.774
	c-0.099,0.249-0.148,0.391-0.212,0.527c-0.676,1.457-1.277,2.957-2.06,4.355c-0.487,0.875-1.167,1.682-1.904,2.365
	c-0.974,0.902-2.174,0.723-2.88-0.398c-0.632-1.006-1.219-2.064-1.642-3.168c-0.689-1.801-1.229-3.66-1.83-5.492
	c0.044-0.017-0.001-0.014-0.016,0.009c-0.076,0.115-0.148,0.233-0.213,0.354c-2.295,4.223-3.722,8.734-4.514,13.463
	c-0.488,2.912,0.275,5.389,2.53,7.342c3.61,3.125,9.606,3.326,13.417,0.445c2.27-1.719,3.517-3.955,3.166-6.863
	c-0.184-1.525-0.478-3.043-0.838-4.535C29.037,30.316,28.054,27.551,26.724,24.774z"/>
<path fill-rule="evenodd" clip-rule="evenodd" fill="#283A34" d="M38.744,7.925C40,8.129,41.471,8.342,42.93,8.613
	c0.818,0.152,1.146,0.677,0.961,1.486c-1.094,4.791-5.281,9.716-11.882,9.18c-1.444-0.117-2.829-0.492-4.163-1.051
	c-0.623-0.261-0.854-0.703-0.701-1.383c0.985-4.392,3.921-7.598,8.482-8.536C36.571,8.115,37.547,8.068,38.744,7.925z
	 M41.445,10.526c-2.493-0.451-4.901-0.484-7.229,0.537c-2.405,1.055-3.877,2.919-4.67,5.38
	C34.841,18.487,39.806,15.56,41.445,10.526z"/>
<path fill-rule="evenodd" clip-rule="evenodd" fill="#283A34" d="M26.984,10.394c0.023,2.094-0.498,4.083-1.239,6.016
	c-0.774,2.019-1.649,4-2.384,6.033c-0.343,0.949-0.489,1.974-0.664,2.976c-0.118,0.68-0.502,1.092-1.158,1.072
	c-0.633-0.018-1.056-0.479-1.052-1.166c0.008-1.391,0.398-2.703,0.89-3.981c0.852-2.211,1.79-4.39,2.6-6.617
	c0.922-2.537,1.122-5.138,0.282-7.747c-0.771-2.399-2.399-3.617-4.918-3.752c-0.155-0.008-0.312-0.015-0.466-0.034
	c-0.652-0.081-1.059-0.537-1.026-1.144C17.88,1.466,18.325,1,18.933,1c3.244,0.001,5.979,1.403,7.278,4.809
	C26.773,7.285,26.969,8.824,26.984,10.394z"/>
</svg>
